REM DIRINDEX 1\2,1\4,1\5,1\6,1\7,1\3\8,1\3\9,1\3\10
REM DIRNAME folder01,folder02,folder03,folder04,folder05,folder06,folder07,folder08,folder09,folder10
TITLE ""
FILE "DB4500_5th_1A_26.mp3" MP3
  TRACK 01 AUDIO
    TITLE "0:"
    INDEX 01 00:00:00
  TRACK 02 AUDIO
    TITLE "8:cjc113_0992"
    INDEX 01 00:00:03
  TRACK 03 AUDIO
    TITLE "0:"
    INDEX 01 00:01:09
  TRACK 04 AUDIO
    TITLE "9:cjc113_0993"
    INDEX 01 00:01:30
  TRACK 05 AUDIO
    TITLE "0:"
    INDEX 01 00:02:45
  TRACK 06 AUDIO
    TITLE "10:cjc113_0994"
    INDEX 01 00:02:61
  TRACK 07 AUDIO
    TITLE "0:"
    INDEX 01 00:06:24
  TRACK 08 AUDIO
    TITLE "8:cjc113_0995"
    INDEX 01 00:06:65
  TRACK 09 AUDIO
    TITLE "0:"
    INDEX 01 00:07:72
  TRACK 10 AUDIO
    TITLE "9:cjc113_0996"
    INDEX 01 00:08:13
  TRACK 11 AUDIO
    TITLE "0:"
    INDEX 01 00:09:42
  TRACK 12 AUDIO
    TITLE "10:cjc113_0997"
    INDEX 01 00:09:59
  TRACK 13 AUDIO
    TITLE "0:"
    INDEX 01 00:13:65
  TRACK 14 AUDIO
    TITLE "8:cjc113_0998"
    INDEX 01 00:14:35
  TRACK 15 AUDIO
    TITLE "0:"
    INDEX 01 00:17:12
  TRACK 16 AUDIO
    TITLE "9:cjc113_0999"
    INDEX 01 00:17:29
  TRACK 17 AUDIO
    TITLE "0:"
    INDEX 01 00:18:66
  TRACK 18 AUDIO
    TITLE "10:cjc113_1000"
    INDEX 01 00:19:11
  TRACK 19 AUDIO
    TITLE "0:"
    INDEX 01 00:23:04
  TRACK 20 AUDIO
    TITLE "8:cjc113_1001"
    INDEX 01 00:23:46
  TRACK 21 AUDIO
    TITLE "0:"
    INDEX 01 00:24:45
  TRACK 22 AUDIO
    TITLE "9:cjc113_1002"
    INDEX 01 00:24:65
  TRACK 23 AUDIO
    TITLE "0:"
    INDEX 01 00:25:72
  TRACK 24 AUDIO
    TITLE "10:cjc113_1003"
    INDEX 01 00:26:15
  TRACK 25 AUDIO
    TITLE "0:"
    INDEX 01 00:30:08
  TRACK 26 AUDIO
    TITLE "8:cjc113_1004"
    INDEX 01 00:30:54
  TRACK 27 AUDIO
    TITLE "0:"
    INDEX 01 00:31:63
  TRACK 28 AUDIO
    TITLE "9:cjc113_1005"
    INDEX 01 00:32:07
  TRACK 29 AUDIO
    TITLE "0:"
    INDEX 01 00:33:17
  TRACK 30 AUDIO
    TITLE "10:cjc113_1006"
    INDEX 01 00:33:34
  TRACK 31 AUDIO
    TITLE "0:"
    INDEX 01 00:37:44
  TRACK 32 AUDIO
    TITLE "8:cjc113_1007"
    INDEX 01 00:38:10
  TRACK 33 AUDIO
    TITLE "0:"
    INDEX 01 00:39:15
  TRACK 34 AUDIO
    TITLE "9:cjc113_1008"
    INDEX 01 00:39:31
  TRACK 35 AUDIO
    TITLE "0:"
    INDEX 01 00:40:60
  TRACK 36 AUDIO
    TITLE "10:cjc113_1009"
    INDEX 01 00:41:04
  TRACK 37 AUDIO
    TITLE "0:"
    INDEX 01 00:44:22
  TRACK 38 AUDIO
    TITLE "8:cjc113_1010"
    INDEX 01 00:44:63
  TRACK 39 AUDIO
    TITLE "0:"
    INDEX 01 00:45:69
  TRACK 40 AUDIO
    TITLE "9:cjc113_1011"
    INDEX 01 00:46:13
  TRACK 41 AUDIO
    TITLE "0:"
    INDEX 01 00:47:28
  TRACK 42 AUDIO
    TITLE "10:cjc113_1012"
    INDEX 01 00:47:44
  TRACK 43 AUDIO
    TITLE "0:"
    INDEX 01 00:51:03
  TRACK 44 AUDIO
    TITLE "8:cjc113_1013"
    INDEX 01 00:51:46
  TRACK 45 AUDIO
    TITLE "0:"
    INDEX 01 00:52:51
  TRACK 46 AUDIO
    TITLE "9:cjc113_1014"
    INDEX 01 00:52:71
  TRACK 47 AUDIO
    TITLE "0:"
    INDEX 01 00:54:03
  TRACK 48 AUDIO
    TITLE "10:cjc113_1015"
    INDEX 01 00:54:21
  TRACK 49 AUDIO
    TITLE "0:"
    INDEX 01 00:57:21
  TRACK 50 AUDIO
    TITLE "8:cjc113_1016"
    INDEX 01 00:57:66
  TRACK 51 AUDIO
    TITLE "0:"
    INDEX 01 00:59:06
  TRACK 52 AUDIO
    TITLE "9:cjc113_1017"
    INDEX 01 00:59:26
  TRACK 53 AUDIO
    TITLE "0:"
    INDEX 01 01:00:62
  TRACK 54 AUDIO
    TITLE "10:cjc113_1018"
    INDEX 01 01:01:07
  TRACK 55 AUDIO
    TITLE "0:"
    INDEX 01 01:05:11
  TRACK 56 AUDIO
    TITLE "8:cjc113_1019"
    INDEX 01 01:05:52
  TRACK 57 AUDIO
    TITLE "0:"
    INDEX 01 01:06:55
  TRACK 58 AUDIO
    TITLE "9:cjc113_1020"
    INDEX 01 01:07:00
  TRACK 59 AUDIO
    TITLE "0:"
    INDEX 01 01:08:01
  TRACK 60 AUDIO
    TITLE "10:cjc113_1021"
    INDEX 01 01:08:21
  TRACK 61 AUDIO
    TITLE "0:"
    INDEX 01 01:12:36
  TRACK 62 AUDIO
    TITLE "8:cjc113_1022"
    INDEX 01 01:13:00
  TRACK 63 AUDIO
    TITLE "0:"
    INDEX 01 01:14:06
  TRACK 64 AUDIO
    TITLE "9:cjc113_1023"
    INDEX 01 01:14:19
  TRACK 65 AUDIO
    TITLE "0:"
    INDEX 01 01:15:56
  TRACK 66 AUDIO
    TITLE "10:cjc113_1024"
    INDEX 01 01:16:03
  TRACK 67 AUDIO
    TITLE "0:"
    INDEX 01 01:19:28
